<svg xml:space="preserve" style="enable-background:new 0 0 500 500;" viewBox="0 0 500 500" y="0px" x="0px" xmlns:xlink="http://www.w3.org/1999/xlink" xmlns="http://www.w3.org/2000/svg" id="Layer_1" version="1.1">
<style type="text/css">
	.st0{fill:#F17C61;}
	.st1{fill:none;stroke:#231F20;stroke-width:9;stroke-linecap:round;stroke-miterlimit:10;}
	.st2{fill:#020202;}
	.st3{fill:#FF7B59;}
	.st4{fill:#231F20;}
	.st5{fill:#6C8CF9;}
	.st6{fill:#36A09D;}
</style>
<g>
	<path d="M290.21,284.78c0.77,1.33,1.99,1.26,3.24,1.08C292.53,285.02,291.47,284.58,290.21,284.78z" class="st3"></path>
	<path d="M286.67,283.18c0.79,1.08,1.9,1.43,3.17,1.41C289.46,282.59,288.06,282.89,286.67,283.18z" class="st3"></path>
	<path d="M355.43,357.57c1.34,0.59,1.99-0.32,2.52-1.34c0.22-0.43,0.43-0.87,0.64-1.31c-0.43-0.1-0.86-0.2-1.29-0.29
		c-1.14-0.26-2.27-0.11-2.81,0.97C354.1,356.38,354.62,357.21,355.43,357.57z" class="st3"></path>
	<path d="M433.74,359.54c8.98,5.33,18.3,10.08,27.48,15.06c-2.58-2.84-5.24-5.62-7.95-8.33
		c-52.8-52.65-105.62-105.29-158.43-157.92c-2.42-2.41-4.98-4.69-7.26-7.22c-5.16-5.72-11.07-7.14-18.46-4.58
		c-21.51,7.46-43.12,14.62-64.69,21.91c-1.61,0.55-3.19,1.22-4.75,1.91c-3.26,1.43-5.7,3.7-7,7.07c-0.82,2.12-1.45,4.32-2.37,6.39
		c-1.33,2.97-4.26,4.64-6.88,3.02c-11.05-6.85-21.66-3.61-32.7,0.18c-32.84,11.26-65.84,22.06-98.74,33.17
		c-5.36,1.81-10.59,4.08-15.7,6.51c-1.2,0.57-2.34,2.74-2.26,4.1c0.08,1.34,1.5,3.33,2.76,3.74c6.48,2.09,13.05,3.97,19.68,5.54
		c35.44,8.4,70.86,16.89,106.39,24.88c10.61,2.39,17.19,6.77,18.25,18.73c0.79,8.95,3.38,10.48,12.09,11.53
		c14.68,1.77,29.39,3.25,44.1,4.78c17.53,1.83,35.07,3.65,52.61,5.38c15.85,1.55,31.77,2.52,47.55,4.58
		c13.51,1.76,27.12,2.7,40.45,6.17c20.92,5.45,42.07,10.04,63.13,14.92c6.09,1.41,12.25,2.56,16.88,3.52
		c0.94,0.13,1.81,0.14,2.61,0.09c-0.72-0.34-1.43-0.73-2.14-1.09c-16.72-8.44-33.45-16.87-50.15-25.36
		c-22.28-11.33-44.56-22.67-66.8-34.07c-23.5-12.05-46.95-24.2-70.44-36.26c-17.69-9.08-35.45-18.02-53.1-27.16
		c-6.3-3.26-12.41-6.89-18.57-10.42c-1.47-0.84-2.88-1.85-4.16-2.96c-1.33-1.16-2.27-2.68-1.45-4.51c0.92-2.05,2.71-3.01,4.87-2.58
		c1.93,0.38,3.84,1.06,5.63,1.91c9.74,4.64,19.52,9.21,29.14,14.09c16.46,8.35,32.8,16.92,49.22,25.36c1.19,0.61,2.51,0.95,3.78,1.4
		c0.22-2.02-1.56-2.61-2.83-3.37c-17.01-10.28-34.09-20.46-51.09-30.76c-8.99-5.44-17.89-11.03-26.8-16.6
		c-1.92-1.2-3.88-2.41-5.07-4.46c-1.28-2.21,0.15-4.7,2.74-4.89c3.33-0.25,6.05,1.29,8.76,2.87c8.34,4.87,16.73,9.67,25,14.65
		c18.49,11.13,36.92,22.36,55.39,33.53c29.38,17.77,58.78,35.5,88.14,53.29C398.34,337.98,415.92,348.96,433.74,359.54z
		 M221.55,322.87c6.23,1.73,12.69,2.63,19.02,4.04c24.12,5.39,48.24,10.82,72.35,16.27c11.91,2.7,23.82,5.39,35.68,8.31
		c3.41,0.84,7.19,0.78,10.07,3.29c0.01-0.01,0.01-0.03,0.02-0.04c2.12,0.62,2.49,2.15,1.84,3.97c-0.51,1.43-1.65,2.43-3.21,2.35
		c-1.68-0.08-3.36-0.43-5.01-0.79c-34.43-7.45-68.85-14.91-103.28-22.39c-18.59-4.04-37.17-8.08-55.74-12.19
		c-2.48-0.55-4.95-1.34-7.28-2.34c-1.71-0.73-2.31-2.43-2.07-4.27c0.26-1.99,1.7-2.96,3.48-3.19c1.38-0.18,2.84-0.04,4.22,0.23
		C201.66,318.12,211.67,320.14,221.55,322.87z" class="st5"></path>
	<path d="M466.63,377.56c-1.39-0.97-2.97-1.65-4.47-2.46c-0.31-0.17-0.62-0.33-0.93-0.5
		c-9.19-4.98-18.51-9.72-27.48-15.06c-17.82-10.58-35.41-21.56-53.14-32.3c-29.36-17.79-58.76-35.52-88.14-53.29
		c-18.47-11.17-36.9-22.4-55.39-33.53c-8.28-4.98-16.66-9.78-25-14.65c-2.71-1.58-5.43-3.12-8.76-2.87
		c-2.58,0.19-4.02,2.68-2.74,4.89c1.19,2.05,3.15,3.26,5.07,4.46c8.91,5.57,17.81,11.15,26.8,16.6
		c17.01,10.29,34.08,20.48,51.09,30.76c1.27,0.77,3.05,1.35,2.83,3.37c-1.27-0.45-2.6-0.79-3.78-1.4
		c-16.41-8.44-32.76-17.01-49.22-25.36c-9.62-4.88-19.4-9.46-29.14-14.09c-1.78-0.85-3.7-1.53-5.63-1.91
		c-2.16-0.43-3.95,0.53-4.87,2.58c-0.82,1.83,0.11,3.35,1.45,4.51c1.28,1.11,2.69,2.11,4.16,2.96c6.16,3.53,12.27,7.16,18.57,10.42
		c17.66,9.14,35.42,18.08,53.1,27.16c23.49,12.06,46.94,24.21,70.44,36.26c22.24,11.4,44.52,22.75,66.8,34.07
		c16.7,8.49,33.43,16.92,50.15,25.36c0.71,0.36,1.41,0.75,2.14,1.09c1.07,0.5,2.18,0.88,3.45,0.71c2.08-0.28,3.94-1.15,4.48-3.32
		C468.91,380.26,468.11,378.6,466.63,377.56z M286.67,283.18c1.39-0.29,2.79-0.59,3.17,1.41
		C288.57,284.61,287.46,284.26,286.67,283.18z M290.21,284.78c1.26-0.19,2.32,0.24,3.24,1.08
		C292.2,286.04,290.99,286.11,290.21,284.78z" class="st2"></path>
	<path d="M80.53,167.29c11.94,8.19,24.08,16.1,35.89,24.47c8.15,5.78,17.29,9.79,25.61,15.23
		c2.34,1.53,5.17,2.34,7.82,3.35c2.37,0.9,4.53,0.52,5.96-1.77c1.46-2.35,0.59-4.6-1.17-6.15c-2.55-2.23-5.37-4.2-8.26-5.97
		c-3.38-2.08-7.09-3.63-10.43-5.76c-13.42-8.55-26.87-17.06-40.07-25.94c-7.54-5.07-14.67-10.77-20.67-17.71
		c-2.43-2.81-4.66-5.77-6.18-9.16c-2.4-5.36-1.31-10.99,2.74-14.9c3.53-3.42,7.1-3.54,13.2-0.46c0.25,0.13,0.47,0.33,0.72,0.45
		c3.42,1.63,6.05,1.31,7.64-0.94c1.88-2.66,1.45-5.79-1.26-8.41c-3.43-3.31-7.47-5.15-11.9-4.83c-9.89-0.07-18.5,6.42-21.56,15.68
		c-3.08,9.31-0.04,17.48,4.95,25C68.14,156.34,73.63,162.56,80.53,167.29z" class="st2"></path>
	<path d="M358.68,354.74c-0.01,0.01-0.01,0.03-0.02,0.04c-2.87-2.51-6.66-2.45-10.07-3.29
		c-11.86-2.91-23.77-5.61-35.68-8.31c-24.11-5.46-48.22-10.88-72.35-16.27c-6.33-1.41-12.79-2.32-19.02-4.04
		c-9.88-2.74-19.89-4.75-29.92-6.75c-1.37-0.27-2.84-0.41-4.22-0.23c-1.78,0.23-3.21,1.2-3.48,3.19c-0.25,1.85,0.36,3.55,2.07,4.27
		c2.34,1,4.8,1.79,7.28,2.34c18.57,4.11,37.16,8.15,55.74,12.19c34.42,7.48,68.85,14.94,103.28,22.39c1.65,0.36,3.33,0.7,5.01,0.79
		c1.57,0.08,2.71-0.92,3.21-2.35C361.17,356.89,360.8,355.36,358.68,354.74z M357.96,356.22c-0.53,1.02-1.18,1.93-2.52,1.34
		c-0.81-0.36-1.34-1.19-0.94-1.98c0.54-1.08,1.67-1.22,2.81-0.97c0.43,0.1,0.86,0.19,1.29,0.29
		C358.39,355.35,358.18,355.8,357.96,356.22z" class="st2"></path>
	<path d="M122.92,232.54c3.04,1.41,5.75,0.43,6.57-1.82c0.97-2.68-0.64-4.39-2.56-5.7c-3.28-2.24-6.61-4.42-10.07-6.37
		c-13.85-7.83-27.47-16-40.5-25.15c-9.92-6.96-18.51-15.04-22.76-26.83c-0.67-1.86-1.59-3.67-2.65-5.33
		c-1.27-1.99-2.89-3.55-5.63-2.46c-2.44,0.97-3.5,2.74-3.28,5.25c0.24,3.87,1.83,7.18,3.79,10.35c6.03,9.75,13.39,18.22,22.59,25.22
		c11.3,8.6,23.26,16.16,35.48,23.3C110.02,226.57,116.49,229.56,122.92,232.54z" class="st2"></path>
	<path d="M190.87,192.8c0.88-2.2-0.06-3.92-1.8-5.16c-2.31-1.65-4.63-3.32-7.12-4.65
		c-14.54-7.73-28.25-16.81-42.19-25.53c-6.01-3.76-12.11-7.4-18.24-10.98c-2.96-1.73-6.07-3.4-9.68-0.08
		c-0.25,4.51,2.71,6.49,5.41,8.49c3.19,2.36,6.56,4.48,9.87,6.68c16.08,10.67,32.5,20.77,49.58,29.76c2.75,1.45,5.62,2.74,8.54,3.82
		C187.73,196.06,190.01,194.98,190.87,192.8z" class="st2"></path>
</g>
</svg>
