<svg width="463" height="161" viewBox="0 0 463 161" fill="none" xmlns="http://www.w3.org/2000/svg">
<path d="M282.259 4C282.174 4 282.089 4 273.663 4.06657C265.236 4.13315 248.47 4.26629 222.733 8.27333C196.995 12.2804 162.794 20.1572 132.115 29.6196C101.435 39.082 75.3121 49.8911 58.322 57.5096C33.9058 68.4581 21.1488 78.3296 11.8512 86.2917C7.23227 90.2472 5.85034 93.3354 4.7806 97.1873C2.2374 106.345 6.32979 113.515 10.9139 120.97C16.345 129.802 25.2906 135.005 36.3027 141.152C40.1666 143.309 45.8412 145.201 54.1436 147.54C62.4459 149.879 73.3716 152.275 96.0738 154.179C118.776 156.084 152.924 157.423 200.737 153.411C248.549 149.399 308.992 139.995 346.856 133.012C384.721 126.028 398.175 121.749 409.489 117.162C443.398 103.414 452.445 92.0908 456.553 86.869C458.209 84.7638 458.255 77.2075 457.982 67.3547C457.682 56.5109 439.493 48.4539 414.92 40.6584C403.197 36.9393 383.33 34.9273 359.911 33.2453C336.492 31.5633 309.787 31.5618 283.715 34.0643C257.643 36.5669 233.014 41.5735 219.417 44.4077C205.82 47.2418 204.001 47.7517 202.127 48.277" stroke="#FFCA45" stroke-width="8" stroke-linecap="round"/>
</svg>
